PathFileType	4	(X/Y/Z)	./resultDataOpenSim/trcMotMarkerGrf/sub09/qtm-14-03.trc
DataRate	CameraRate	NumFrames	NumMarkers	Units	OrigDataRate	OrigDataStartFrame	OrigNumFrames
250.000000	250.000000	6	24	m	250.000000	1	486
Frame#	Time	L.Toe.Tip			R.Toe.Tip			L.Ankle.Lat			R.Ankle.Lat			L.Ankle.Med			R.Ankle.Med			L.Heel			R.Heel			L.Knee.Lat			R.Knee.Lat			L.Knee.Med			R.Knee.Med			L.Thigh.Upper			R.Thigh.Upper			L.ASIS			R.ASIS			V.Sacral			L.Acromium			R.Acromium			C7			L.Elbow			R.Elbow			L.Wrist.Lat			R.Wrist.Lat
		X1	Y1	Z1	X2	Y2	Z2	X3	Y3	Z3	X4	Y4	Z4	X5	Y5	Z5	X6	Y6	Z6	X7	Y7	Z7	X8	Y8	Z8	X9	Y9	Z9	X10	Y10	Z10	X11	Y11	Z11	X12	Y12	Z12	X13	Y13	Z13	X14	Y14	Z14	X15	Y15	Z15	X16	Y16	Z16	X17	Y17	Z17	X18	Y18	Z18	X19	Y19	Z19	X20	Y20	Z20	X21	Y21	Z21	X22	Y22	Z22	X23	Y23	Z23	X24	Y24	Z24

1	0	-1.463232	0.03633009	-0.011456215	-0.87652923	0.10945158	0.14499865	-1.6112594	0.077057527	-0.042377647	-1.0249636	0.077152379	0.17240084	-1.5838297	0.093364281	0.051182307	-1.0200856	0.11553221	0.080525112	NaN	NaN	NaN	-1.0728324	0.032173754	0.11650007	-1.4604879	0.46827995	-0.097536639	-1.1265637	0.52743763	0.20239509	-1.4606303	0.46894461	0.027882351	-1.1195174	0.50558135	0.077809929	-1.3592887	0.87865839	-0.13920399	-1.3311801	0.875087	0.23201484	-1.2546389	0.95219249	-0.084432908	-1.2496969	0.95646426	0.15602964	-1.4128121	1.017073	0.042146262	-1.1964456	1.4054179	-0.10267398	-1.2504092	1.4095357	0.22004668	-1.280302	1.4639051	0.058380758	-1.3198769	1.053955	-0.20775407	-1.436389	1.0960705	0.28894625	-1.0800619	0.92682187	-0.16869079	-1.3369126	0.84640607	0.33520342
2	0.004	-1.4631817	0.036293906	-0.011461877	-0.86039803	0.11316467	0.14581103	-1.6110925	0.077907614	-0.042017181	-1.0081056	0.077618543	0.17355916	-1.5831158	0.093991377	0.051413819	-1.0042591	0.11614003	0.081640336	NaN	NaN	NaN	-1.0546579	0.031512221	0.11894104	-1.4578848	0.46835989	-0.097552961	-1.1162881	0.52617448	0.20373987	-1.4578411	0.46880815	0.028022666	-1.1129436	0.50350117	0.078154997	-1.3533111	0.87751987	-0.13860099	-1.3243062	0.8733357	0.23229685	-1.248264	0.95088563	-0.084455191	-1.2429195	0.95507819	0.15616812	-1.4063202	1.0153129	0.042330823	-1.1905145	1.4042135	-0.10226049	-1.2447396	1.4079606	0.22051782	-1.2745435	1.4625874	0.058807596	-1.3129139	1.0525259	-0.2077811	-1.4304468	1.0941787	0.28870087	-1.0724712	0.92658363	-0.16808606	-1.3306499	0.84479673	0.33544057
3	0.008	-1.4631333	0.03625681	-0.011473625	-0.84457559	0.11686687	0.14659455	-1.6109012	0.078790393	-0.041678106	-0.99150856	0.078208639	0.17466945	-1.5823626	0.094681306	0.051634279	-0.98856282	0.11683675	0.082737126	NaN	NaN	NaN	-1.0370953	0.031120432	0.12077092	-1.4551455	0.46841049	-0.097558017	-1.1074531	0.52471614	0.20473987	-1.454912	0.46871254	0.028179981	-1.1063568	0.50142383	0.078471518	-1.3472704	0.87639171	-0.13805688	-1.3174256	0.87156116	0.23256129	-1.2418437	0.94956815	-0.08443655	-1.2360646	0.95366949	0.15629919	-1.3998246	1.0135166	0.042543988	-1.1845665	1.4029974	-0.10185101	-1.2390076	1.4063835	0.22097219	-1.2687591	1.4612347	0.059240584	-1.3059467	1.0511349	-0.20772656	-1.4246064	1.0923351	0.28836844	-1.0648896	0.92629661	-0.16750237	-1.3243563	0.84318045	0.3356451
4	0.012	-1.4630838	0.036217471	-0.011491873	-0.82923928	0.12054223	0.14732141	-1.6106667	0.079717111	-0.041376293	-0.97523302	0.079020834	0.17572116	-1.5815818	0.095431831	0.051828016	-0.9731652	0.11764131	0.083788245	NaN	NaN	NaN	-1.0205059	0.031136424	0.12166716	-1.4521915	0.46841631	-0.097541977	-1.1000427	0.52307021	0.20538941	-1.4517658	0.46864325	0.028355481	-1.099743	0.49934365	0.078771537	-1.3411406	0.8752573	-0.13757697	-1.3104893	0.8697443	0.23281494	-1.2353612	0.94822695	-0.084368756	-1.2290819	0.95224012	0.15643099	-1.3932927	1.0116837	0.042823624	-1.1785779	1.4017657	-0.10142851	-1.233176	1.4047984	0.22140806	-1.262936	1.4598387	0.059683881	-1.2989684	1.0497576	-0.20758269	-1.4188524	1.0905463	0.2879948	-1.0573084	0.92592648	-0.16694507	-1.3179859	0.84154977	0.33581238
5	0.016	-1.4630289	0.036175546	-0.01151326	-0.81446275	0.12413746	0.14799111	-1.6103783	0.080688691	-0.041132597	-0.95916728	0.080130768	0.17669679	-1.5808254	0.09619508	0.051980957	-0.95833263	0.11849995	0.084750931	NaN	NaN	NaN	-1.0048382	0.031455363	0.12187259	-1.4490014	0.46837329	-0.097499868	-1.093195	0.52135828	0.20589557	-1.4484134	0.46855432	0.028533934	-1.0931035	0.49726227	0.07909033	-1.3349433	0.87409209	-0.13712546	-1.3034603	0.86787971	0.23307679	-1.2288445	0.94685541	-0.084267603	-1.2219875	0.95080303	0.1565867	-1.3867095	1.0098348	0.043174369	-1.1725471	1.4005208	-0.1009814	-1.227247	1.4032039	0.22183967	-1.2570846	1.4584223	0.060143158	-1.2919879	1.0483372	-0.20739759	-1.4130577	1.0887711	0.28772147	-1.0497264	0.9254602	-0.16640277	-1.3115223	0.8399029	0.33596225
6	0.02	-1.4629657	0.036134223	-0.011535096	-0.80025868	0.12757345	0.14864328	-1.6100317	0.08170745	-0.040972162	-0.94321986	0.081547849	0.17754959	-1.5801335	0.09695139	0.052079011	-0.94423364	0.11935967	0.085589485	NaN	NaN	NaN	-0.98956814	0.031721231	0.12231062	-1.4455716	0.46828039	-0.097431075	-1.0863253	0.51965637	0.20641327	-1.4448854	0.4684175	0.028702253	-1.086434	0.49520168	0.079445164	-1.3287072	0.87288286	-0.13666575	-1.2963334	0.86597323	0.23336036	-1.2223202	0.94545338	-0.084145955	-1.2148473	0.94935897	0.15678765	-1.3800831	1.0079852	0.043566851	-1.1664843	1.3992604	-0.10051924	-1.2212391	1.4016019	0.22228381	-1.2512132	1.4570162	0.060625591	-1.2850131	1.046854	-0.20720491	-1.4071186	1.0869604	0.28762252	-1.042165	0.92490262	-0.16587156	-1.3049882	0.83823789	0.33611773
